<svg xmlns="http://www.w3.org/2000/svg" viewBox="0 0 960 640" role="img" aria-labelledby="title desc">
  <title id="title">Import Patchprinter Data</title>
  <desc id="desc">A schematic Patch Printer file flowing into a Vectorworks lighting device list.</desc>
  <rect width="960" height="640" fill="#f8f9ff"/>
  <g fill="none" stroke="#dce3f5" stroke-width="2">
    <path d="M0 80h960M0 160h960M0 240h960M0 320h960M0 400h960M0 480h960M0 560h960"/>
    <path d="M80 0v640M160 0v640M240 0v640M320 0v640M400 0v640M480 0v640M560 0v640M640 0v640M720 0v640M800 0v640M880 0v640"/>
  </g>
  <g transform="translate(110 104)">
    <path d="M0 28A28 28 0 0 1 28 0h252l84 84v348a28 28 0 0 1-28 28H28A28 28 0 0 1 0 432Z" fill="#fff" stroke="#3757a6" stroke-width="6"/>
    <path d="M280 0v84h84" fill="#e9efff" stroke="#3757a6" stroke-width="6"/>
    <path d="M72 164h220M72 220h220M72 276h148M72 332h184" stroke="#0f1b3d" stroke-linecap="round" stroke-width="14"/>
    <rect x="72" y="96" width="90" height="28" rx="14" fill="#6b9fff"/>
    <text x="117" y="116" fill="#0f1b3d" font-family="monospace" font-size="18" font-weight="700" text-anchor="middle">.PXP</text>
  </g>
  <g transform="translate(520 126)">
    <path d="M0 44A44 44 0 0 1 44 0h252a44 44 0 0 1 44 44v344a44 44 0 0 1-44 44H44A44 44 0 0 1 0 388Z" fill="#0f1b3d"/>
    <path d="M58 94h224M58 158h224M58 222h224M58 286h224" stroke="#fff" stroke-linecap="round" stroke-width="10"/>
    <circle cx="82" cy="94" r="13" fill="#6b9fff"/>
    <circle cx="82" cy="158" r="13" fill="#6b9fff"/>
    <circle cx="82" cy="222" r="13" fill="#6b9fff"/>
    <circle cx="82" cy="286" r="13" fill="#6b9fff"/>
    <path d="M117 94h120M117 158h88M117 222h134M117 286h104" stroke="#9fb8f0" stroke-linecap="round" stroke-width="10"/>
  </g>
  <path d="M420 320h84" fill="none" stroke="#3757a6" stroke-linecap="round" stroke-width="16"/>
  <path d="m484 286 38 34-38 34" fill="none" stroke="#3757a6" stroke-linecap="round" stroke-linejoin="round" stroke-width="16"/>
  <g fill="#3757a6">
    <circle cx="64" cy="64" r="10"/>
    <circle cx="896" cy="576" r="10"/>
  </g>
</svg>
